# xmcd
# Copyright (C) 1995-1998 Ti Kan
#
# Track frame offsets:
#       150
#       16062
#       33153
#       54643
#       75290
#       93185
#       117173
#       133052
#       148937
#       172827
#
# Disc length: 3939 seconds
#
# Revision: 1
# Processed by: cddbd v1.5.2PL0 Copyright (c) Steve Scherf et al.
# Submitted via: CD-Transfer v1.0
#
DISCID=720f610a
DTITLE=Jars Of Clay - D. Haseltine, Jars Of Clay
DYEAR=95
DGENRE=
TTITLE0=Liquid
TTITLE1=Sinking
TTITLE2=Love Song For A Savior
TTITLE3=Like A Child
TTITLE4=Art In Me
TTITLE5=He
TTITLE6=Boy On A String
TTITLE7=Flood
TTITLE8=Worlds Apart
TTITLE9=Four Seven
EXTD=
EXTT0=
EXTT1=
EXTT2=
EXTT3=
EXTT4=
EXTT5=
EXTT6=
EXTT7=
EXTT8=
EXTT9=
PLAYORDER=
